<svg width="48" height="48" viewBox="0 0 48 48" fill="none" xmlns="http://www.w3.org/2000/svg">
<g filter="url(#filter0_i_240_446)">
<rect width="48" height="48" rx="24" fill="#030014"/>
</g>
<rect x="0.5" y="0.5" width="47" height="47" rx="23.5" stroke="#220F8C" stroke-opacity="0.5"/>
<g clip-path="url(#clip0_240_446)">
<path d="M20.835 28.3295L21.3177 28.6115C22.1316 29.0862 23.0574 29.3354 23.9997 29.3335C25.0545 29.3335 26.0857 29.0207 26.9627 28.4347C27.8398 27.8486 28.5234 27.0157 28.927 26.0411C29.3307 25.0666 29.4363 23.9942 29.2305 22.9597C29.0248 21.9251 28.5168 20.9748 27.7709 20.2289C27.025 19.483 26.0747 18.9751 25.0402 18.7693C24.0056 18.5635 22.9332 18.6691 21.9587 19.0728C20.9842 19.4765 20.1512 20.1601 19.5652 21.0371C18.9791 21.9142 18.6664 22.9453 18.6664 24.0002C18.6664 24.9575 18.9177 25.8755 19.389 26.6828L19.6704 27.1655L19.235 28.7662L20.835 28.3295ZM17.3357 30.6668L18.237 27.3548C17.6431 26.3367 17.3311 25.1788 17.333 24.0002C17.333 20.3182 20.3177 17.3335 23.9997 17.3335C27.6817 17.3335 30.6664 20.3182 30.6664 24.0002C30.6664 27.6822 27.6817 30.6668 23.9997 30.6668C22.8215 30.6687 21.6641 30.3569 20.6464 29.7635L17.3357 30.6668ZM21.5937 20.8722C21.683 20.8655 21.773 20.8655 21.8623 20.8695C21.8983 20.8722 21.9344 20.8762 21.9704 20.8802C22.0764 20.8922 22.193 20.9568 22.2324 21.0462C22.431 21.4968 22.6244 21.9508 22.811 22.4062C22.8524 22.5075 22.8277 22.6375 22.749 22.7642C22.6949 22.8498 22.6364 22.9326 22.5737 23.0122C22.4984 23.1088 22.3364 23.2862 22.3364 23.2862C22.3364 23.2862 22.2704 23.3648 22.2957 23.4628C22.305 23.5002 22.3357 23.5542 22.3637 23.5995L22.403 23.6628C22.5737 23.9475 22.803 24.2362 23.083 24.5082C23.163 24.5855 23.241 24.6648 23.325 24.7388C23.637 25.0142 23.9903 25.2388 24.3717 25.4055L24.375 25.4068C24.4317 25.4315 24.4603 25.4448 24.543 25.4802C24.5843 25.4975 24.627 25.5128 24.6703 25.5242C24.7151 25.5356 24.7623 25.5334 24.8058 25.518C24.8494 25.5026 24.8874 25.4745 24.915 25.4375C25.3977 24.8528 25.4417 24.8148 25.4457 24.8148V24.8162C25.4792 24.7849 25.5191 24.7612 25.5625 24.7465C25.606 24.7319 25.6521 24.7268 25.6977 24.7315C25.7377 24.7342 25.7784 24.7415 25.8157 24.7582C26.1697 24.9202 26.749 25.1728 26.749 25.1728L27.137 25.3468C27.2023 25.3782 27.2617 25.4522 27.2637 25.5235C27.2664 25.5682 27.2703 25.6402 27.255 25.7722C27.2337 25.9448 27.1817 26.1522 27.1297 26.2608C27.0941 26.335 27.0468 26.403 26.9897 26.4622C26.9224 26.5328 26.8488 26.5971 26.7697 26.6542C26.7423 26.6747 26.7145 26.6947 26.6864 26.7142C26.6034 26.7668 26.5182 26.8157 26.431 26.8608C26.2594 26.952 26.0698 27.0043 25.8757 27.0142C25.7524 27.0208 25.629 27.0302 25.505 27.0235C25.4997 27.0235 25.1263 26.9655 25.1263 26.9655C24.1785 26.7162 23.3019 26.2491 22.5664 25.6015C22.4157 25.4688 22.2764 25.3262 22.1337 25.1842C21.5404 24.5942 21.0924 23.9575 20.8204 23.3562C20.6811 23.061 20.6059 22.7398 20.5997 22.4135C20.5969 22.0087 20.7292 21.6146 20.9757 21.2935C21.0244 21.2308 21.0704 21.1655 21.1497 21.0902C21.2344 21.0102 21.2877 20.9675 21.3457 20.9382C21.4228 20.8995 21.5069 20.8768 21.593 20.8715L21.5937 20.8722Z" fill="#664FE3"/>
</g>
<defs>
<filter id="filter0_i_240_446" x="0" y="0" width="48" height="48" filterUnits="userSpaceOnUse" color-interpolation-filters="sRGB">
<feFlood flood-opacity="0" result="BackgroundImageFix"/>
<feBlend mode="normal" in="SourceGraphic" in2="BackgroundImageFix" result="shape"/>
<feColorMatrix in="SourceAlpha" type="matrix" values="0 0 0 0 0 0 0 0 0 0 0 0 0 0 0 0 0 0 127 0" result="hardAlpha"/>
<feOffset/>
<feGaussianBlur stdDeviation="9"/>
<feComposite in2="hardAlpha" operator="arithmetic" k2="-1" k3="1"/>
<feColorMatrix type="matrix" values="0 0 0 0 0.654902 0 0 0 0 0.603922 0 0 0 0 0.929412 0 0 0 0.15 0"/>
<feBlend mode="normal" in2="shape" result="effect1_innerShadow_240_446"/>
</filter>
<clipPath id="clip0_240_446">
<rect width="16" height="16" fill="white" transform="translate(16 16)"/>
</clipPath>
</defs>
</svg>
