<svg width="16" height="16" viewBox="0 0 16 16" fill="none" xmlns="http://www.w3.org/2000/svg">
<g clip-path="url(#clip0_230_317)">
<path d="M7.99967 14.6668C11.6816 14.6668 14.6663 11.6821 14.6663 8.00016C14.6663 4.31826 11.6816 1.3335 7.99967 1.3335C4.31778 1.3335 1.33301 4.31826 1.33301 8.00016C1.33301 11.6821 4.31778 14.6668 7.99967 14.6668Z" stroke="url(#paint0_linear_230_317)" stroke-width="1.33333" stroke-linecap="round" stroke-linejoin="round"/>
<path d="M6.05957 5.99989C6.21631 5.55434 6.52567 5.17863 6.93287 4.93931C7.34008 4.7 7.81883 4.61252 8.28435 4.69237C8.74988 4.77222 9.17211 5.01424 9.47629 5.37558C9.78046 5.73691 9.94694 6.19424 9.94624 6.66656C9.94624 7.99989 7.94624 8.66656 7.94624 8.66656" stroke="url(#paint1_linear_230_317)" stroke-width="1.33333" stroke-linecap="round" stroke-linejoin="round"/>
<path d="M8 11.3335H8.00667" stroke="url(#paint2_linear_230_317)" stroke-width="1.33333" stroke-linecap="round" stroke-linejoin="round"/>
</g>
<defs>
<linearGradient id="paint0_linear_230_317" x1="14.6663" y1="8.00019" x2="1.33301" y2="8.00019" gradientUnits="userSpaceOnUse">
<stop stop-color="#CE9AED"/>
<stop offset="1" stop-color="#9320D9"/>
</linearGradient>
<linearGradient id="paint1_linear_230_317" x1="9.94624" y1="6.66508" x2="6.05957" y2="6.66508" gradientUnits="userSpaceOnUse">
<stop stop-color="#CE9AED"/>
<stop offset="1" stop-color="#9320D9"/>
</linearGradient>
<linearGradient id="paint2_linear_230_317" x1="8.00667" y1="11.8335" x2="8" y2="11.8335" gradientUnits="userSpaceOnUse">
<stop stop-color="#CE9AED"/>
<stop offset="1" stop-color="#9320D9"/>
</linearGradient>
<clipPath id="clip0_230_317">
<rect width="16" height="16" fill="white"/>
</clipPath>
</defs>
</svg>
