<svg viewBox="0 0 1952 913" fill="none" xmlns="http://www.w3.org/2000/svg">
<rect opacity="0.2" y="0.0141602" width="1" height="912" fill="#544E77"/>
<rect opacity="0.2" x="70" y="0.0141602" width="1" height="912" fill="#544E77"/>
<rect opacity="0.2" x="140" y="0.0141602" width="1" height="912" fill="#544E77"/>
<rect opacity="0.2" x="210" y="0.0141602" width="1" height="912" fill="#544E77"/>
<rect opacity="0.2" x="280" y="0.0141602" width="1" height="912" fill="#544E77"/>
<rect opacity="0.2" x="350" y="0.0141602" width="1" height="912" fill="#544E77"/>
<rect opacity="0.2" x="420" y="0.0141602" width="1" height="912" fill="#544E77"/>
<rect opacity="0.2" x="490" y="0.0141602" width="1" height="912" fill="#544E77"/>
<rect opacity="0.2" x="560" y="0.0141602" width="1" height="912" fill="#544E77"/>
<rect opacity="0.2" x="630" y="0.0141602" width="1" height="912" fill="#544E77"/>
<rect opacity="0.2" x="700" y="0.0141602" width="1" height="912" fill="#544E77"/>
<rect opacity="0.2" x="770" y="0.0141602" width="1" height="912" fill="#544E77"/>
<rect opacity="0.2" x="840" y="0.0141602" width="1" height="912" fill="#544E77"/>
<rect opacity="0.2" x="910" y="0.0141602" width="1" height="912" fill="#544E77"/>
<rect opacity="0.2" x="980" y="0.0141602" width="1" height="912" fill="#544E77"/>
<rect opacity="0.2" x="1050" y="0.0141602" width="1" height="912" fill="#544E77"/>
<rect opacity="0.2" x="1120" y="0.0141602" width="1" height="912" fill="#544E77"/>
<rect opacity="0.2" x="1190" y="0.0141602" width="1" height="912" fill="#544E77"/>
<rect opacity="0.2" x="1260" y="0.0141602" width="1" height="912" fill="#544E77"/>
<rect opacity="0.2" x="1330" y="0.0141602" width="1" height="912" fill="#544E77"/>
<rect opacity="0.2" x="1399" y="0.0141602" width="1" height="912" fill="#544E77"/>
<rect opacity="0.2" x="1468" y="0.0141602" width="1" height="912" fill="#544E77"/>
<rect opacity="0.2" x="1537" y="0.0141602" width="1" height="912" fill="#544E77"/>
<rect opacity="0.2" x="1606" y="0.0141602" width="1" height="912" fill="#544E77"/>
<rect opacity="0.2" x="1675" y="0.0141602" width="1" height="912" fill="#544E77"/>
<rect opacity="0.2" x="1744" y="0.0141602" width="1" height="912" fill="#544E77"/>
<rect opacity="0.2" x="1813" y="0.0141602" width="1" height="912" fill="#544E77"/>
<rect opacity="0.2" x="1882" y="0.0141602" width="1" height="912" fill="#544E77"/>
<rect opacity="0.2" x="1951" y="0.0141602" width="1" height="912" fill="#544E77"/>
<rect opacity="0.2" y="771.018" width="0.999948" height="1951" transform="rotate(-90 0 771.018)" fill="#544E77"/>
<rect opacity="0.2" y="841.012" width="0.999363" height="1952" transform="rotate(-90 0 841.012)" fill="#544E77"/>
<rect opacity="0.2" y="911.012" width="0.999363" height="1952" transform="rotate(-90 0 911.012)" fill="#544E77"/>
<rect opacity="0.2" y="491.016" width="0.999948" height="1951" transform="rotate(-90 0 491.016)" fill="#544E77"/>
<rect opacity="0.2" y="421.016" width="0.999948" height="1951" transform="rotate(-90 0 421.016)" fill="#544E77"/>
<rect opacity="0.2" y="351.015" width="0.999948" height="1951" transform="rotate(-90 0 351.015)" fill="#544E77"/>
<rect opacity="0.2" y="281.015" width="0.999948" height="1951" transform="rotate(-90 0 281.015)" fill="#544E77"/>
<rect opacity="0.2" y="211.014" width="0.999948" height="1951" transform="rotate(-90 0 211.014)" fill="#544E77"/>
<rect opacity="0.2" y="141.014" width="0.999948" height="1951" transform="rotate(-90 0 141.014)" fill="#544E77"/>
<rect opacity="0.2" y="71.0132" width="0.999948" height="1951" transform="rotate(-90 0 71.0132)" fill="#544E77"/>
<rect opacity="0.2" y="1.0127" width="0.999948" height="1951" transform="rotate(-90 0 1.0127)" fill="#544E77"/>
<rect opacity="0.2" y="561.017" width="0.999948" height="1951" transform="rotate(-90 0 561.017)" fill="#544E77"/>
<rect opacity="0.2" y="631.012" width="0.999363" height="1952" transform="rotate(-90 0 631.012)" fill="#544E77"/>
<rect opacity="0.2" y="701.012" width="0.999363" height="1952" transform="rotate(-90 0 701.012)" fill="#544E77"/>
<rect width="1951" height="912" fill="url(#paint0_linear_267_457)"/>
<defs>
<linearGradient id="paint0_linear_267_457" x1="975.5" y1="0" x2="975.5" y2="912" gradientUnits="userSpaceOnUse">
<stop offset="0.203125" stop-color="#030014" stop-opacity="0"/>
<stop offset="1" stop-color="#030014"/>
</linearGradient>
</defs>
</svg>
