<svg width="290" height="290" viewBox="0 0 290 290" fill="none" xmlns="http://www.w3.org/2000/svg">
<g id="pen-tool">
<path id="penToolBackOutline" d="M143.232 227.816C142.256 228.792 142.256 230.375 143.232 231.351L179.482 267.601C180.459 268.577 182.041 268.577 183.018 267.601L267.601 183.018C268.577 182.041 268.577 180.459 267.601 179.482L231.351 143.232C230.375 142.256 228.792 142.256 227.816 143.232L219.032 152.015L201.823 65.9685C201.632 65.0139 200.904 64.257 199.958 64.0286L24.7497 21.7369C23.9031 21.5326 23.0111 21.7835 22.3953 22.3993C21.7795 23.0152 21.5285 23.9071 21.7329 24.7537L64.0246 199.962C64.253 200.908 65.0099 201.636 65.9645 201.827L152.011 219.036L143.232 227.816Z" stroke="#220F8C" stroke-opacity="0.2" stroke-width="5" stroke-linecap="round" stroke-linejoin="round"/>
<path id="penToolFill" class="animationFill" d="M24.167 24.1666L199.375 66.4583L217.5 157.083L157.084 217.5L66.4587 199.375L24.167 24.1666ZM24.167 24.1666L115.831 115.831M145 229.583L229.584 145L265.834 181.25L181.25 265.833L145 229.583ZM157.084 132.917C157.084 146.264 146.264 157.083 132.917 157.083C119.57 157.083 108.75 146.264 108.75 132.917C108.75 119.57 119.57 108.75 132.917 108.75C146.264 108.75 157.084 119.57 157.084 132.917Z" stroke="url(#paint0_linear_230_133)" stroke-width="8" stroke-linecap="round" stroke-linejoin="round"/>
<path id="penToolOutline" d="M202 64L202.49 63.9003C202.451 63.7106 202.307 63.5603 202.119 63.5143L202 64ZM219.5 150L219.01 150.1L219.196 151.012L219.854 150.354L219.5 150ZM229.5 140L229.854 139.646C229.658 139.451 229.342 139.451 229.146 139.646L229.5 140ZM270.5 181L270.855 181.353C271.049 181.157 271.048 180.841 270.854 180.646L270.5 181ZM181.5 270.5L181.146 270.854C181.24 270.947 181.368 271 181.501 271C181.634 271 181.761 270.947 181.855 270.853L181.5 270.5ZM140 229L139.656 228.637C139.558 228.73 139.502 228.859 139.5 228.994C139.498 229.128 139.551 229.258 139.646 229.354L140 229ZM150 219.5L150.344 219.863L151.041 219.201L150.099 219.01L150 219.5ZM181 261L180.644 261.351L180.996 261.709L181.352 261.355L181 261ZM150 229.5L149.646 229.146L149.296 229.497L149.644 229.851L150 229.5ZM229.5 150L229.854 149.646L229.5 149.293L229.146 149.646L229.5 150ZM261 181.5L261.352 181.855L261.708 181.501L261.354 181.146L261 181.5ZM156 213.5L155.904 213.991L156.165 214.042L156.354 213.854L156 213.5ZM69.5 196.5L69.0141 196.618L69.0894 196.929L69.4036 196.991L69.5 196.5ZM30.5 35.5L30.8536 35.1464L29.595 33.8879L30.0141 35.6177L30.5 35.5ZM111 116L111.362 116.345L111.699 115.992L111.354 115.646L111 116ZM112 151L112.38 150.675L112 151ZM155.5 149.5L155.097 149.204L155.5 149.5ZM150 111L150.305 110.604L150.298 110.598L150.291 110.593L150 111ZM116 111L115.646 111.354L115.955 111.662L116.302 111.399L116 111ZM35.5 30.5L35.6177 30.0141L33.8879 29.595L35.1464 30.8536L35.5 30.5ZM196.5 69.5L196.991 69.4036L196.929 69.0894L196.618 69.0141L196.5 69.5ZM213.5 156L213.854 156.354L214.042 156.165L213.991 155.904L213.5 156ZM63.5 202L63.0136 202.116L63.0877 202.427L63.4009 202.49L63.5 202ZM20 19.5L20.1188 19.0143C19.9495 18.9729 19.771 19.0226 19.6475 19.1454C19.5239 19.2682 19.4732 19.4465 19.5136 19.6159L20 19.5ZM118 147.5L118.358 147.15L118 147.5ZM118.5 118L118.156 117.637L118.5 118ZM147.5 118.5L147.145 118.852L147.5 118.5ZM149 146L148.609 145.688L149 146ZM201.51 64.0997L219.01 150.1L219.99 149.9L202.49 63.9003L201.51 64.0997ZM140.344 229.363L150.344 219.863L149.656 219.137L139.656 228.637L140.344 229.363ZM181.356 260.649L150.356 229.149L149.644 229.851L180.644 261.351L181.356 260.649ZM150.354 229.854L229.854 150.354L229.146 149.646L149.646 229.146L150.354 229.854ZM229.146 150.354L260.646 181.854L261.354 181.146L229.854 149.646L229.146 150.354ZM260.648 181.145L180.648 260.645L181.352 261.355L261.352 181.855L260.648 181.145ZM156.096 213.009L69.5964 196.009L69.4036 196.991L155.904 213.991L156.096 213.009ZM69.9859 196.382L30.9859 35.3823L30.0141 35.6177L69.0141 196.618L69.9859 196.382ZM30.1464 35.8536L110.646 116.354L111.354 115.646L30.8536 35.1464L30.1464 35.8536ZM111 116C110.638 115.655 110.638 115.655 110.638 115.655C110.638 115.655 110.637 115.656 110.637 115.656C110.636 115.657 110.635 115.658 110.634 115.659C110.632 115.662 110.628 115.665 110.624 115.67C110.616 115.678 110.604 115.691 110.589 115.708C110.558 115.741 110.514 115.789 110.458 115.853C110.346 115.98 110.185 116.166 109.987 116.409C109.592 116.895 109.049 117.608 108.449 118.523C107.251 120.35 105.825 122.991 104.915 126.24C103.089 132.765 103.366 141.69 111.62 151.325L112.38 150.675C104.358 141.31 104.135 132.735 105.878 126.51C106.753 123.384 108.128 120.837 109.286 119.071C109.864 118.189 110.387 117.503 110.763 117.04C110.952 116.809 111.103 116.633 111.207 116.516C111.258 116.457 111.298 116.414 111.325 116.385C111.338 116.371 111.347 116.36 111.354 116.354C111.357 116.35 111.359 116.348 111.36 116.347C111.361 116.346 111.361 116.345 111.362 116.345C111.362 116.345 111.362 116.345 111.362 116.345C111.362 116.345 111.362 116.345 111 116ZM111.62 151.325C122.886 164.476 145.632 163.746 155.903 149.796L155.097 149.204C145.212 162.63 123.231 163.342 112.38 150.675L111.62 151.325ZM155.903 149.796C165.07 137.345 162.551 120.036 150.305 110.604L149.695 111.396C161.514 120.499 163.94 137.194 155.097 149.204L155.903 149.796ZM150.291 110.593C141.397 104.24 132.739 104.238 126.317 105.827C123.111 106.621 120.463 107.81 118.615 108.802C117.691 109.297 116.966 109.744 116.47 110.069C116.221 110.231 116.031 110.363 115.901 110.454C115.836 110.5 115.786 110.536 115.752 110.561C115.735 110.574 115.722 110.583 115.713 110.59C115.709 110.593 115.705 110.596 115.703 110.598C115.701 110.599 115.7 110.6 115.7 110.6C115.699 110.601 115.699 110.601 115.699 110.601C115.698 110.601 115.698 110.601 116 111C116.302 111.399 116.302 111.399 116.302 111.399C116.302 111.399 116.302 111.399 116.302 111.399C116.302 111.398 116.303 111.398 116.303 111.397C116.305 111.396 116.307 111.394 116.311 111.392C116.318 111.387 116.329 111.379 116.343 111.368C116.373 111.346 116.418 111.313 116.478 111.271C116.599 111.186 116.78 111.061 117.017 110.906C117.492 110.595 118.192 110.163 119.088 109.683C120.881 108.721 123.451 107.567 126.558 106.798C132.761 105.262 141.103 105.26 149.709 111.407L150.291 110.593ZM116.354 110.646L35.8536 30.1464L35.1464 30.8536L115.646 111.354L116.354 110.646ZM35.3823 30.9859L196.382 69.9859L196.618 69.0141L35.6177 30.0141L35.3823 30.9859ZM196.009 69.5964L213.009 156.096L213.991 155.904L196.991 69.4036L196.009 69.5964ZM213.146 155.646L155.646 213.146L156.354 213.854L213.854 156.354L213.146 155.646ZM150.099 219.01L63.5991 201.51L63.4009 202.49L149.901 219.99L150.099 219.01ZM63.9864 201.884L20.4864 19.3841L19.5136 19.6159L63.0136 202.116L63.9864 201.884ZM19.8812 19.9857L201.881 64.4857L202.119 63.5143L20.1188 19.0143L19.8812 19.9857ZM118.358 147.15C110.496 139.11 110.694 126.105 118.844 118.363L118.156 117.637C109.598 125.767 109.394 139.413 117.642 147.85L118.358 147.15ZM118.844 118.363C126.857 110.75 139.369 110.991 147.145 118.852L147.855 118.148C139.7 109.904 126.567 109.647 118.156 117.637L118.844 118.363ZM147.145 118.852C154.531 126.319 155.163 137.484 148.609 145.688L149.391 146.312C156.263 137.709 155.596 125.974 147.855 118.148L147.145 118.852ZM148.609 145.688C141.234 154.921 126.622 155.604 118.358 147.15L117.642 147.85C126.324 156.729 141.637 156.019 149.391 146.312L148.609 145.688ZM139.646 229.354L181.146 270.854L181.854 270.146L140.354 228.646L139.646 229.354ZM181.855 270.853L270.855 181.353L270.145 180.647L181.145 270.147L181.855 270.853ZM270.854 180.646L229.854 139.646L229.146 140.354L270.146 181.354L270.854 180.646ZM229.146 139.646L219.146 149.646L219.854 150.354L229.854 140.354L229.146 139.646Z" fill="#D0CCE3"/>
</g>
<defs>
<linearGradient id="paint0_linear_230_133" x1="265.834" y1="145.001" x2="24.167" y2="145.001" gradientUnits="userSpaceOnUse">
<stop stop-color="#664FE3"/>
<stop offset="1" stop-color="#220F8C"/>
</linearGradient>
</defs>
</svg>
