<svg width="364" height="436" viewBox="0 0 364 436" fill="none" xmlns="http://www.w3.org/2000/svg">
<g id="priceLines">
<rect id="Rectangle 2153" x="31" width="1" height="436" fill="#130659" fill-opacity="0.5"/>
<rect id="Rectangle 2154" x="81" width="1" height="436" fill="#130659" fill-opacity="0.5"/>
<rect id="Rectangle 2155" x="131" width="1" height="436" fill="#130659" fill-opacity="0.5"/>
<rect id="Rectangle 2156" x="181" width="1" height="436" fill="#130659" fill-opacity="0.5"/>
<rect id="Rectangle 2157" x="231" width="1" height="436" fill="#130659" fill-opacity="0.5"/>
<rect id="Rectangle 2158" x="281" width="1" height="436" fill="#130659" fill-opacity="0.5"/>
<rect id="Rectangle 2159" x="331" width="1" height="436" fill="#130659" fill-opacity="0.5"/>
<rect id="Rectangle 2160" y="350" width="1.99998" height="364" transform="rotate(-90 0 350)" fill="#130659" fill-opacity="0.5"/>
<rect id="Rectangle 2167" y="400" width="1.99998" height="364" transform="rotate(-90 0 400)" fill="#130659" fill-opacity="0.5"/>
<rect id="Rectangle 2161" y="300" width="1.99998" height="364" transform="rotate(-90 0 300)" fill="#130659" fill-opacity="0.5"/>
<rect id="Rectangle 2162" y="250" width="1.99998" height="364" transform="rotate(-90 0 250)" fill="#130659" fill-opacity="0.5"/>
<rect id="Rectangle 2163" y="200" width="1.99998" height="364" transform="rotate(-90 0 200)" fill="#130659" fill-opacity="0.5"/>
<rect id="Rectangle 2164" y="150" width="1.99998" height="364" transform="rotate(-90 0 150)" fill="#130659" fill-opacity="0.5"/>
<rect id="Rectangle 2165" y="100" width="1.99998" height="364" transform="rotate(-90 0 100)" fill="#130659" fill-opacity="0.5"/>
<rect id="Rectangle 2166" y="50" width="1.99998" height="364" transform="rotate(-90 0 50)" fill="#130659" fill-opacity="0.5"/>
</g>
</svg>
