<svg width="338" height="338" viewBox="0 0 338 338" fill="none" xmlns="http://www.w3.org/2000/svg">
<g id="search">
<g id="searchBackOutline">
<mask id="path-1-outside-1_230_122" maskUnits="userSpaceOnUse" x="34.3887" y="34.4956" width="270" height="270" fill="black">
<rect fill="white" x="34.3887" y="34.4956" width="270" height="270"/>
<path d="M66.4997 155.5C66.1556 91.2964 117.798 39.0511 182 38.5C246.753 37.9441 299.779 90.745 299.5 155.5C299.223 219.703 247.203 271.567 183 271.5C133.5 271.5 103.5 240 103.5 240L44.4997 299C44.4997 299 42.5 301 39.4997 298.5C36.9999 296 39.4997 293 39.4997 293L97.9997 234.5C84.9997 223.5 66.6777 188.713 66.4997 155.5Z"/>
</mask>
<path d="M66.4997 155.5C66.1556 91.2964 117.798 39.0511 182 38.5C246.753 37.9441 299.779 90.745 299.5 155.5C299.223 219.703 247.203 271.567 183 271.5C133.5 271.5 103.5 240 103.5 240L44.4997 299C44.4997 299 42.5 301 39.4997 298.5C36.9999 296 39.4997 293 39.4997 293L97.9997 234.5C84.9997 223.5 66.6777 188.713 66.4997 155.5Z" stroke="#220F8C" stroke-opacity="0.2" stroke-width="8" mask="url(#path-1-outside-1_230_122)"/>
</g>
<path id="searchFill" class="animationFill" d="M42.2441 295.75L103.507 234.488M70.4163 154.917C70.4163 217.141 120.859 267.583 183.083 267.583C245.307 267.583 295.75 217.141 295.75 154.917C295.75 92.6926 245.307 42.25 183.083 42.25C120.859 42.25 70.4163 92.6926 70.4163 154.917Z" stroke="url(#paint0_linear_230_122)" stroke-width="9" stroke-linecap="round" stroke-linejoin="round"/>
<path id="searchOutline" d="M66.4997 155.5C66.1556 91.2964 117.798 39.0511 182 38.5C246.753 37.9441 299.779 90.745 299.5 155.5C299.223 219.703 247.203 271.567 183 271.5C133.5 271.5 103.5 240 103.5 240L44.4997 299C44.4997 299 42.5 301 39.4997 298.5C36.9999 296 39.4997 293 39.4997 293L97.9997 234.5C84.9997 223.5 66.6777 188.713 66.4997 155.5Z" stroke="#D0CCE3"/>
</g>
<defs>
<linearGradient id="paint0_linear_230_122" x1="295.75" y1="169.001" x2="42.2441" y2="169.001" gradientUnits="userSpaceOnUse">
<stop stop-color="#664FE3"/>
<stop offset="1" stop-color="#220F8C"/>
</linearGradient>
</defs>
</svg>
