<svg width="16" height="16" viewBox="0 0 16 16" fill="none" xmlns="http://www.w3.org/2000/svg">
<g id="behance-line">
<path id="Vector" d="M5.00033 7.33331C5.73671 7.33331 6.33366 6.73638 6.33366 5.99998C6.33366 5.2636 5.73671 4.66665 5.00033 4.66665H2.00033V7.33331H5.00033ZM5.66699 8.66665H2.00033V11.3333H5.66699C6.40337 11.3333 7.00033 10.7364 7.00033 9.99998C7.00033 9.26358 6.40337 8.66665 5.66699 8.66665ZM7.04246 7.71498C7.81626 8.18171 8.33366 9.03045 8.33366 9.99998C8.33366 11.4727 7.13973 12.6666 5.66699 12.6666H0.666992V3.33331H5.00033C6.47309 3.33331 7.66699 4.52722 7.66699 5.99998C7.66699 6.65307 7.43219 7.25131 7.04246 7.71498ZM10.3337 3.99998H14.0003V4.99998H10.3337V3.99998ZM15.3337 9.66665H10.3337V9.83331C10.3337 10.8458 11.1545 11.6666 12.167 11.6666C12.8795 11.6666 13.497 11.2602 13.8004 10.6666H15.2229C14.8571 12.0112 13.6275 13 12.167 13C10.4181 13 9.00033 11.5822 9.00033 9.83331V8.83331C9.00033 7.08438 10.4181 5.66665 12.167 5.66665C13.9159 5.66665 15.3337 7.08438 15.3337 8.83331V9.66665ZM13.9313 8.33331C13.7137 7.56378 13.0062 6.99998 12.167 6.99998C11.3278 6.99998 10.6203 7.56378 10.4027 8.33331H13.9313Z" fill="#B4B1C4"/>
</g>
</svg>
