<svg width="16" height="16" viewBox="0 0 16 16" fill="none" xmlns="http://www.w3.org/2000/svg">
<g id="message-circle">
<path id="Vector" d="M14 7.66662C14.0023 8.54654 13.7967 9.41455 13.4 10.2C12.9296 11.1411 12.2065 11.9327 11.3116 12.4861C10.4168 13.0396 9.3855 13.3329 8.33333 13.3333C7.45342 13.3356 6.58541 13.13 5.8 12.7333L2 14L3.26667 10.2C2.86995 9.41455 2.66437 8.54654 2.66667 7.66662C2.66707 6.61446 2.96041 5.58319 3.51381 4.68832C4.06722 3.79346 4.85884 3.07034 5.8 2.59996C6.58541 2.20325 7.45342 1.99766 8.33333 1.99996H8.66667C10.0562 2.07662 11.3687 2.66313 12.3528 3.6472C13.3368 4.63126 13.9233 5.94373 14 7.33329V7.66662Z" stroke-width="1.33333" stroke-linecap="round" stroke-linejoin="round"/>
</g>
</svg>
