<svg width="32" height="20" viewBox="0 0 32 20" fill="none" xmlns="http://www.w3.org/2000/svg">
<g id="NavBar Logo">
<path id="Vector" d="M20.4911 18.0011L21.5194 17.7592C20.8581 18.2995 20.0113 18.6161 19.108 18.6362L17.6865 18.6645L19.0697 18.3378L20.4911 18.0011Z" fill="#D6843A"/>
<path id="Vector_2" d="M30.4108 1.05454L29.0941 3.45388L27.7775 5.85121L21.9889 16.3982C21.4062 17.4608 20.2569 18.1383 18.9927 18.1625L10.5587 18.3339L10.47 18.5113L10.3188 18.8117L7.50811 18.8682L5.20151 18.9145L0.824219 19.0032L9.27636 2.52237C9.9256 1.25616 11.2725 0.45974 12.7484 0.469821L26.1948 0.554504L26.098 0.850893L26.0415 1.02631L30.4067 1.05454H30.4108Z" fill="#D6843A"/>
<path id="Vector_3" d="M12.7367 0C11.9201 0 11.1197 0.217755 10.4261 0.627055C9.72037 1.04442 9.15179 1.64325 8.78483 2.35902L0 19.4932L4.87127 19.3944L6.99843 19.35L10.0793 19.2875L10.168 19.1101L10.3192 18.8117L10.4704 18.5112L10.5591 18.3338L7.9622 18.3862L5.71205 18.4326L1.55655 18.5173L9.62157 2.78848C10.1962 1.66744 11.4181 0.943608 12.7347 0.943608L26.042 1.02829L26.0984 0.852876L26.1952 0.556486L26.292 0.260096L26.3484 0.0866991L12.7347 0H12.7367ZM22.0195 17.6382L21.5175 17.7572L20.4892 17.9991L19.0677 18.3358L17.6846 18.6625L16.3155 18.9851L15.505 19.1766L19.0133 19.106C20.3097 19.0798 21.5135 18.5072 22.32 17.5676L22.0195 17.6382Z" fill="white"/>
<path id="Vector_4" d="M12.7647 0.17542C11.9683 0.169371 11.19 0.379062 10.5145 0.77828C9.83707 1.17952 9.29269 1.75213 8.93984 2.43968L0.288086 19.3137L4.98999 19.219L7.18771 19.1746L10.1677 19.1141L10.319 18.8157L10.4702 18.5153L7.80066 18.5697L5.49204 18.6161L1.27 18.7008L9.4681 2.71187C10.077 1.5243 11.3694 0.762151 12.7606 0.770216L26.1022 0.854898L26.199 0.558509L26.2958 0.262119L12.7667 0.177436L12.7647 0.17542ZM21.5172 17.7592L20.489 18.0011C20.0514 18.2008 19.5675 18.3177 19.0675 18.3379L17.6843 18.6645L16.3153 18.9871L19.009 18.9327C20.1684 18.9085 21.2491 18.4326 22.0173 17.6402L21.5152 17.7592H21.5172Z" fill="white"/>
<path id="Vector_5" d="M19.941 4.03453C19.7494 3.84097 19.5942 3.63128 19.4772 3.40344C19.3119 3.56071 18.9873 3.73612 18.5114 3.84097C17.8582 3.98412 16.7573 4.19381 15.8419 4.48214C14.9265 4.77046 14.0152 4.86926 14.0152 4.86926L13.997 4.91967L13.872 5.10516C13.872 5.10516 13.7833 5.27251 13.749 5.37332C13.7148 5.47414 13.624 5.99836 13.5797 6.0407C13.5353 6.08305 13.2954 6.18588 13.1562 6.18386C13.1764 6.18789 13.1946 6.19192 13.2087 6.19596C13.374 6.24233 13.6704 5.99635 13.6704 5.99635L15.6887 5.66367C15.6887 5.66367 16.1383 5.76448 16.2653 5.74633C16.3923 5.72818 19.9954 4.13937 19.9954 4.13937C19.9954 4.13937 19.9954 4.13938 20.068 4.14139C20.0256 4.10711 19.9833 4.07082 19.943 4.03251L19.941 4.03453Z" fill="black"/>
<path id="Vector_6" d="M27.9108 5.97614L22.1443 16.4829C21.7733 17.1583 21.1886 17.6825 20.491 18.0011L19.0695 18.3378L17.6864 18.6644L16.3173 18.987L15.5068 19.1786L10.0811 19.2895L10.1698 19.1121L10.321 18.8136L10.4722 18.5132L10.5609 18.3358L18.9949 18.1644C20.2591 18.1382 21.4064 17.4628 21.9911 16.4002L27.7797 5.85315L27.9108 5.98017V5.97614Z" fill="white"/>
<path id="Vector_7" d="M28.4816 6.53061L22.818 16.8518C22.6768 17.1079 22.5095 17.3478 22.322 17.5676L22.0215 17.6382L21.5195 17.7571L20.4912 17.9991C21.1888 17.6825 21.7735 17.1563 22.1445 16.4808L27.911 5.97412L28.1631 6.21809L28.3526 6.40157L28.4836 6.52859L28.4816 6.53061Z" fill="white"/>
<path id="Vector_8" d="M31.9999 0.120946L30.1712 3.45382L28.4815 6.53062L28.3525 6.40562L28.1609 6.22012L27.9109 5.97615L27.7799 5.85115L29.0965 3.45382L30.4111 1.05447L26.0459 1.02625L26.1024 0.852847L26.1991 0.556457L26.2939 0.260067L26.3504 0.0866699L31.9999 0.120946Z" fill="white"/>
<path id="Vector_9" d="M29.097 3.45386L27.7803 5.85119L21.9917 16.3982C21.409 17.4608 20.2597 18.1383 18.9955 18.1625L10.5615 18.3338L12.0536 15.374L12.3338 15.4244L13.6141 15.6542L14.9328 15.8921L16.7373 11.8314L17.0236 11.1842L17.6406 9.79297L18.5822 9.69821L21.0803 3.51435L21.1065 3.44983H29.0909L29.097 3.45386Z" fill="black"/>
<path id="Vector_10" d="M20.2085 3.79264C20.3738 3.76038 20.5412 3.73618 20.7065 3.71199C20.7247 3.70594 20.7428 3.69989 20.761 3.69384C20.9646 3.58496 21.1642 3.47608 21.3699 3.37124C21.4666 3.28454 21.5816 3.2059 21.7106 3.15348C22.005 3.03452 22.134 2.77644 21.9324 2.76838C21.7308 2.76031 20.9505 2.75628 20.5412 2.89742C20.1299 3.03856 19.4443 3.43374 19.4443 3.43374L19.9645 3.83901C20.0472 3.82288 20.1299 3.81078 20.2105 3.79465L20.2085 3.79264Z" fill="black"/>
<path id="Vector_11" d="M30.411 1.05447L29.0964 3.45382L27.7798 5.85115L25.3058 3.45382L25.2695 3.41954L26.0458 1.02625L30.411 1.05447Z" fill="black"/>
<path id="Vector_12" d="M17.7569 11.5289C17.6722 11.5188 17.3053 11.3333 17.027 11.1882C16.8476 11.0934 16.7044 11.0168 16.7044 11.0168C16.7044 11.0168 16.7548 10.0651 16.2911 9.72639C15.8294 9.38766 15.1237 9.53888 15.0067 9.44008C14.8898 9.3433 14.3192 8.16782 14.3192 8.16782C14.3192 8.16782 14.42 7.58311 14.541 6.88952C14.5974 6.56087 14.5591 6.17576 14.5027 5.85921C14.4402 5.50838 14.3535 5.24425 14.3535 5.24425C14.3535 5.24425 14.7325 5.13336 14.9261 5.10513C14.9886 5.08295 15.0632 5.02851 15.1257 4.97206C15.1882 4.9156 15.2386 4.85914 15.2507 4.83092C15.2588 4.81277 15.2507 4.74019 15.2366 4.64946C15.2084 4.47202 15.156 4.22201 15.1519 4.15346C15.1459 4.04861 15.16 3.86312 15.16 3.86312L15.2023 3.64939L15.1983 3.59697L14.8454 3.25017C14.8454 3.25017 14.8616 3.06468 14.8535 2.93362C14.8454 2.80256 14.6035 2.44972 14.6035 2.44972C14.6035 2.44972 14.791 2.3852 14.7708 2.04445C14.7487 1.7037 14.3474 1.43958 14.3474 1.43958C14.2325 1.7904 12.805 1.82871 12.3554 2.12107C11.9057 2.41343 11.9642 2.88321 11.9582 3.22598C11.9521 3.54656 12.3171 4.39339 12.3655 4.50428C12.3574 4.49219 12.3312 4.48412 12.2606 4.52243C12.1537 4.58292 11.3291 5.87131 11.1617 6.25238C10.9924 6.63143 8.65554 9.23039 8.58094 9.78688C8.50634 10.3454 9.09509 10.5168 8.93379 10.5531C8.77047 10.5893 8.48618 10.4502 8.48618 10.4502C8.48618 10.4502 7.93776 11.7749 8.00429 12.3778C8.07083 12.9786 8.34302 13.3819 8.34302 13.3819L8.06881 13.4C8.06881 13.4 7.23207 16.2429 6.87317 17.0837C6.61912 17.6785 6.09691 18.1261 5.71383 18.4366C5.63116 18.5032 5.55656 18.5616 5.49204 18.6161C5.43155 18.6645 5.38114 18.7088 5.34283 18.7491C5.31259 18.7794 5.26622 18.8378 5.20573 18.9205C5.14726 19.0012 5.07467 19.102 4.99402 19.2209C4.95571 19.2774 4.91539 19.3359 4.87305 19.3984L7.0002 19.354C7.06875 19.2895 7.13327 19.229 7.19174 19.1746C7.27038 19.102 7.33893 19.0375 7.39538 18.985C7.43168 18.9508 7.46998 18.9125 7.51233 18.8721C7.60104 18.7834 7.69984 18.6806 7.80267 18.5677C7.85509 18.5112 7.90953 18.4507 7.96598 18.3902C8.49223 17.8075 9.06283 17.116 9.06283 17.116C9.06283 17.116 9.53463 16.743 9.60923 16.6341C9.68383 16.5232 9.7786 15.4122 9.87135 15.1441C9.96409 14.8739 11.0468 13.3052 11.1295 13.2992C11.2122 13.2931 12.553 12.7609 12.5026 12.8173C12.4501 12.8738 10.8492 14.5029 10.8492 14.5029C10.8492 14.5029 10.9924 15.0211 11.1093 15.1179C11.1658 15.1662 11.7485 15.3013 12.3372 15.4304C12.9623 15.5675 13.5934 15.6945 13.5934 15.6945C13.5934 15.6945 13.6014 15.6824 13.6175 15.6602C13.7184 15.513 14.1055 14.9344 13.9785 14.8275C13.8333 14.7045 12.8373 14.1904 12.8373 14.1904C12.8373 14.1904 12.9381 14.0513 13.0429 13.9666C13.1478 13.8819 16.2205 11.6035 16.2205 11.6035L16.7407 11.8374L17.5533 12.2024L18.2025 11.6076C18.2025 11.6076 17.896 11.5471 17.7569 11.5309V11.5289ZM12.9179 9.86349C12.9179 9.86349 13.3312 9.0207 13.4421 9.01465L13.8635 9.59331L12.9179 9.86349Z" fill="black"/>
</g>
</svg>
