<svg width="1023" height="777" viewBox="0 0 1023 777" fill="none" xmlns="http://www.w3.org/2000/svg">
<g id="Group 27639">
<g id="Vector">
<path d="M70.6042 644.514C66.7369 651.819 24.59 734.395 4 774.77C50.6409 773.785 144.889 771.815 148.757 771.815C164.871 771.01 173.465 758.118 175.882 753.553C177.816 749.9 221.986 669.132 243.829 629.205C199.426 628.936 108.15 628.453 98.2665 628.668C85.9125 628.936 75.4384 635.382 70.6042 644.514Z" stroke="#462711" stroke-width="3.75"/>
<path d="M310.702 497.122C306.834 504.428 264.687 587.004 244.097 627.379C290.738 626.394 384.987 624.424 388.854 624.424C404.968 623.619 413.562 610.727 415.979 606.162C417.913 602.509 462.083 521.741 483.926 481.814C439.524 481.545 348.247 481.062 338.364 481.277C326.01 481.545 315.536 487.991 310.702 497.122Z" stroke="#462711" stroke-width="3.75"/>
<path d="M550.799 350.806C546.932 358.111 504.785 440.687 484.195 481.062C530.836 480.077 625.084 478.108 628.952 478.108C645.066 477.302 653.66 464.411 656.077 459.845C658.011 456.192 702.181 375.425 724.024 335.497C679.621 335.229 588.345 334.745 578.461 334.96C566.107 335.229 555.633 341.674 550.799 350.806Z" stroke="#462711" stroke-width="3.75"/>
<path d="M790.897 203.952C787.029 211.257 744.882 293.833 724.292 334.208C770.933 333.223 865.182 331.254 869.049 331.254C885.163 330.448 893.757 317.557 896.174 312.991C898.108 309.339 942.278 228.571 964.121 188.643C919.719 188.375 828.442 187.891 818.559 188.106C806.205 188.375 795.731 194.821 790.897 203.952Z" stroke="#462711" stroke-width="3.75"/>
</g>
<g id="Vector_2">
<path d="M125.987 458.461C122.12 465.766 79.9728 548.342 59.3828 588.717C106.024 587.732 200.272 585.763 204.14 585.763C220.253 584.957 228.848 572.066 231.265 567.5C233.198 563.847 277.368 483.08 299.212 443.152C254.809 442.884 163.532 442.4 153.649 442.615C141.295 442.884 130.821 449.329 125.987 458.461Z" stroke="#462711" stroke-width="3.75"/>
<path d="M366.085 311.07C362.217 318.375 320.07 400.951 299.48 441.326C346.121 440.341 440.37 438.372 444.237 438.372C460.351 437.566 468.945 424.675 471.362 420.109C473.296 416.456 517.466 335.689 539.309 295.761C494.906 295.493 403.63 295.009 393.747 295.224C381.393 295.493 370.919 301.938 366.085 311.07Z" stroke="#462711" stroke-width="3.75"/>
<path d="M606.182 164.753C602.315 172.058 560.168 254.634 539.578 295.009C586.219 294.024 680.467 292.055 684.335 292.055C700.448 291.249 709.043 278.358 711.46 273.792C713.393 270.14 757.563 189.372 779.407 149.445C735.004 149.176 643.727 148.693 633.844 148.907C621.49 149.176 611.016 155.622 606.182 164.753Z" stroke="#462711" stroke-width="3.75"/>
<path d="M846.279 17.8991C842.412 25.2042 800.265 107.78 779.675 148.155C826.316 147.171 920.565 145.201 924.432 145.201C940.546 144.395 949.14 131.504 951.557 126.938C953.491 123.286 997.661 42.518 1019.5 2.59068C975.101 2.32211 883.825 1.83869 873.942 2.05354C861.588 2.32211 851.114 8.76778 846.279 17.8991Z" stroke="#462711" stroke-width="3.75"/>
</g>
</g>
</svg>
